<svg xmlns="http://www.w3.org/2000/svg" id="Layer_1" viewBox="0 0 350 88.17"><defs><style> .cls-1 { fill: #fff; } .cls-2 { fill: #bf2f85; } .cls-3 { fill: #28454e; } .cls-4 { fill: #348598; } .cls-5 { fill: #b79d4a; } </style></defs><g><polyline class="cls-5" points="162.81 23.83 145.87 31.76 128.02 23.69 146.11 15.61"></polyline><line class="cls-2" x1="145.87" y1="15.61" x2="157.64" y2="21.21"></line><polyline class="cls-5" points="128.02 23.69 128.02 43.38 145.87 53.01 145.87 31.76"></polyline><polyline class="cls-4" points="179.41 15.07 175.05 10.09 160.74 14.16"></polyline><polygon class="cls-4" points="179.57 15.18 195.43 31.75 202.84 31.9 202.86 31.85 187.06 15.34 179.57 15.18"></polygon><line class="cls-3" x1="195.34" y1="31.9" x2="182.53" y2="37.84"></line><polyline class="cls-4" points="161.69 26 154.26 36.96 169.44 55.3"></polyline><polygon class="cls-4" points="171.19 36.22 182.2 37.74 166.11 19.7 155.25 18.59 171.19 36.22"></polygon><polyline class="cls-4" points="182.56 37.82 182.54 37.87 187.37 45.03 187.39 45.01 199.25 37.98 195.45 31.74"></polyline></g><g><path class="cls-1" d="M57.2,22.57h6.22l2.02,17.23h.2l3.6-17.36h6.85l3.6,17.36h.2l2.02-17.23h6.25l-4.07,22.22h-8.4l-3.01-15.48-3.01,15.48h-8.43l-4.03-22.22Z"></path><path class="cls-1" d="M96.62,27.69v3.47h7.08v5.03h-7.08v3.47h9.06v5.13h-14.95v-22.22h14.95v5.13h-9.06Z"></path></g><g><path class="cls-1" d="M76.93,79.93l-1.06-.24.53-4.02c2.6.35,4.61.53,6.02.53,1.54,0,2.3-.53,2.3-1.59,0-.37-.17-.67-.52-.89-.34-.22-.85-.45-1.52-.71-.43-.16-.75-.28-.94-.38-2.22-.75-3.8-1.6-4.74-2.57-.94-.96-1.4-2.17-1.4-3.63,0-2.07.63-3.63,1.89-4.69s2.97-1.59,5.14-1.59c.89,0,1.73.06,2.52.18.8.12,2.26.37,4.38.77l-.41,4.07c-2.56-.29-4.53-.44-5.9-.44-1.61,0-2.42.44-2.42,1.33,0,.29.2.55.59.75.39.21,1.01.47,1.86.78.87.32,1.43.53,1.68.65,1.3.53,2.3,1.05,3.01,1.55s1.22,1.11,1.54,1.82c.31.71.47,1.6.47,2.69,0,1.38-.32,2.55-.96,3.53s-1.51,1.71-2.6,2.21-2.32.75-3.68.75c-1.69,0-3.62-.29-5.79-.86Z"></path><path class="cls-1" d="M93.83,78.31c-1.33-1.63-1.99-4.22-1.99-7.76s.66-6.21,1.98-7.88c1.32-1.67,3.49-2.51,6.52-2.51s5.21.84,6.52,2.51c1.32,1.67,1.98,4.29,1.98,7.85s-.65,5.96-1.95,7.68c-1.3,1.71-3.48,2.57-6.55,2.57s-5.18-.82-6.51-2.45ZM102.15,75.64c.44-.38.76-.98.96-1.8.2-.82.29-1.92.29-3.32,0-2.09-.23-3.58-.68-4.47-.45-.9-1.25-1.34-2.39-1.34s-1.91.45-2.38,1.36-.69,2.4-.69,4.49c0,1.85.2,3.26.59,4.22.39.96,1.22,1.45,2.48,1.45.77,0,1.37-.19,1.82-.58Z"></path><path class="cls-1" d="M116.75,60.54h5.55l1.8,15.38h.18l3.22-15.5h6.11l3.22,15.5h.18l1.8-15.38h5.58l-3.63,19.84h-7.5l-2.69-13.82-2.69,13.82h-7.53l-3.6-19.84Z"></path><path class="cls-1" d="M151.94,65.11v3.1h6.32v4.49h-6.32v3.1h8.09v4.58h-13.34v-19.84h13.34v4.58h-8.09Z"></path><path class="cls-1" d="M171.77,79.67c-1.15-.73-1.94-1.82-2.38-3.26s-.65-3.38-.65-5.8c0-2.83.25-5,.75-6.5s1.28-2.53,2.35-3.1c1.06-.57,2.54-.86,4.43-.86s4.03.29,6.32.89l-.15,4.13c-1.85-.26-3.35-.38-4.49-.38-1.04,0-1.84.16-2.39.49-.55.32-.93.84-1.14,1.54-.21.7-.31,1.69-.31,2.97,0,.65,0,1.15.03,1.51.06,1.46.18,2.51.35,3.16.18.65.49,1.09.94,1.33.45.24,1.18.35,2.19.35,1.36,0,2.96-.11,4.81-.33l.09,4.25c-2.13.47-4.06.71-5.82.71-2.15,0-3.79-.36-4.94-1.09Z"></path><path class="cls-1" d="M185.57,60.54h7.94c2.48,0,4.34.58,5.59,1.74,1.25,1.16,1.88,2.87,1.88,5.14s-.81,4.16-2.42,5.7l2.16,7.26h-5.76l-1.45-5.99h-2.69v5.99h-5.26v-19.84ZM193.6,69.9c.63,0,1.12-.24,1.46-.72.34-.48.52-1.07.52-1.76s-.19-1.24-.58-1.71-.88-.71-1.49-.71h-2.69v4.9h2.77Z"></path><path class="cls-1" d="M209.22,65.11v3.1h6.32v4.49h-6.32v3.1h8.09v4.58h-13.34v-19.84h13.34v4.58h-8.09Z"></path><path class="cls-1" d="M230.21,77.84h-5.79l-.38,2.54h-5.31l3.81-19.84h9.56l3.81,19.84h-5.31l-.38-2.54ZM227.96,64.85h-1.3l-1.36,8.44h4.02l-1.36-8.44Z"></path><path class="cls-1" d="M240.48,65.17h-4.75v-4.63h14.76v4.63h-4.69v15.2h-5.31v-15.2Z"></path><path class="cls-1" d="M258.1,65.11v3.1h6.32v4.49h-6.32v3.1h8.09v4.58h-13.34v-19.84h13.34v4.58h-8.09Z"></path></g><g><path class="cls-5" d="M221.75,44c-1.29-.82-2.18-2.03-2.66-3.65-.49-1.62-.73-3.79-.73-6.5,0-3.17.28-5.6.84-7.28.56-1.68,1.44-2.83,2.63-3.47,1.19-.64,2.84-.96,4.96-.96s4.52.33,7.08.99l-.17,4.63c-2.07-.29-3.75-.43-5.03-.43-1.17,0-2.06.18-2.68.55-.62.36-1.04.94-1.27,1.72-.23.78-.35,1.89-.35,3.32,0,.73.01,1.29.03,1.69.07,1.63.2,2.81.4,3.54.2.73.55,1.22,1.06,1.49s1.32.4,2.45.4c1.52,0,3.32-.12,5.39-.36l.1,4.76c-2.38.53-4.55.79-6.51.79-2.4,0-4.25-.41-5.54-1.22Z"></path><path class="cls-5" d="M248.26,41.95h-6.48l-.43,2.84h-5.95l4.27-22.22h10.72l4.27,22.22h-5.95l-.43-2.84ZM245.74,27.39h-1.46l-1.52,9.46h4.5l-1.52-9.46Z"></path><path class="cls-5" d="M257.25,22.57h8.9c2.78,0,4.87.65,6.27,1.95,1.4,1.3,2.1,3.22,2.1,5.75s-.9,4.66-2.71,6.38l2.41,8.14h-6.45l-1.62-6.71h-3.01v6.71h-5.89v-22.22ZM266.25,33.05c.71,0,1.25-.27,1.64-.81s.58-1.2.58-1.97-.22-1.39-.65-1.92-.99-.79-1.67-.79h-3.01v5.49h3.11Z"></path><path class="cls-5" d="M283.74,27.69v3.47h7.08v5.03h-7.08v3.47h9.06v5.13h-14.95v-22.22h14.95v5.13h-9.06Z"></path></g></svg>