<svg xmlns="http://www.w3.org/2000/svg" id="Layer_1" viewBox="0 0 350 65"><defs><style> .cls-1 { fill: #fff; } .cls-2 { fill: #bf2f85; } .cls-3 { fill: #28454e; } .cls-4 { fill: #348598; } .cls-5 { fill: #b79d4a; } </style></defs><g><polyline class="cls-5" points="181.08 28.16 164.14 36.09 146.29 28.02 164.38 19.94"></polyline><line class="cls-2" x1="164.14" y1="19.94" x2="175.91" y2="25.54"></line><polyline class="cls-5" points="146.29 28.02 146.29 47.71 164.14 57.34 164.14 36.09"></polyline><polyline class="cls-4" points="197.68 19.41 193.32 14.42 179.01 18.49"></polyline><polygon class="cls-4" points="197.84 19.51 213.7 36.08 221.11 36.23 221.13 36.19 205.33 19.67 197.84 19.51"></polygon><line class="cls-3" x1="213.61" y1="36.24" x2="200.8" y2="42.17"></line><polyline class="cls-4" points="179.96 30.33 172.53 41.29 187.71 59.64"></polyline><polygon class="cls-4" points="189.46 40.56 200.47 42.08 184.38 24.04 173.52 22.92 189.46 40.56"></polygon><polyline class="cls-4" points="200.83 42.15 200.81 42.2 205.64 49.36 205.66 49.34 217.52 42.32 213.72 36.07"></polyline></g><g><path class="cls-5" d="M52.92,27.15h.33c.92,0,1.62-1.01,2.09-3.02l-.12-.12h-.08c-.59.95-1.15,1.42-1.67,1.42-.7,0-1.05-.54-1.05-1.62,0-.7.52-2.34,1.57-4.91h-.16c-1.62,2.13-2.42,4.03-2.42,5.7v.83c0,.17.03.4.08.69.27.68.74,1.03,1.42,1.03Z"></path><path class="cls-5" d="M56.65,18.37h.17l.29-.24h.19c.41.47.89,1.51,1.42,3.12.12.92.23,1.38.35,1.38.18,0,.44-.48.78-1.44.5-3.09,1.01-4.64,1.53-4.64l.29.12c.47.49.72.73.78.73.17,0,.32-.36.47-1.09v-.12c0-.13-.02-.23-.06-.3-.4-.72-.78-1.09-1.12-1.09-1.02,0-1.81,1.78-2.37,5.35h-.06v-.06c-.63-3-1.6-4.5-2.89-4.5h-.12c-.23.16-.55.66-.95,1.5v.12c.48.76.91,1.14,1.3,1.14Z"></path><path class="cls-5" d="M112.42,52.92h-.04c-.28.6-.55.91-.8.91-.34,0-.5-.34-.5-1.03,0-.45.25-1.49.76-3.12h-.08c-.78,1.36-1.16,2.56-1.16,3.61v.53c0,.1.01.25.04.43.13.43.36.65.68.65h.16c.44,0,.78-.64,1.01-1.91l-.06-.08Z"></path><path class="cls-5" d="M114.95,56.44h-.35l-.1.06s-.01-.06-.04-.06h-.31c-.8,0-1.2-.22-1.2-.67v-.04c0-.26.14-.55.41-.87,1.8-1.75,2.7-2.92,2.7-3.51s-.58-.93-1.75-.93c-.5.01-.76.05-.76.1-.41,0-.8.43-1.14,1.28,0,.03.01.08.04.16.44-.17.78-.26,1.01-.26.9,0,1.44.13,1.61.39l-.76.83c-1.31,1.22-1.96,2.26-1.96,3.1v.41c0,.6.47,1.01,1.4,1.22h.66c1.45,0,2.77-.58,3.96-1.74l-.04-.1c-1.47.41-2.6.61-3.37.61Z"></path><path class="cls-5" d="M83.09,48.18h-.04c-.62,0-1.59.72-2.91,2.15h-.97c-.76,0-1.76.6-3.01,1.8-1.32,1.57-2.17,2.5-2.56,2.8-1.37.92-2.06,1.4-2.06,1.44v.06c.45-.08.68-.14.68-.2.58,0,1.34-.47,2.27-1.4,1.76-2.07,3.26-3.1,4.52-3.1l1.28.26c.52,0,.98-.09,1.38-.26,1.5-.63,2.25-1.48,2.25-2.55v-.16c0-.51-.28-.8-.83-.85Z"></path><path class="cls-5" d="M58.28,39.75c-.4-4.29,1.92-6.28,6.94-5.96l-.58-4.31c-.53-.22-1.1-.33-1.71-.33-.23,0-.46.01-.71.04-1.84.14-3.53.75-5.09,1.83-2.21,1.54-3.45,3.59-3.74,6.15-.16,2.73.19,4.66,1.05,5.81h.02l-.04.06c-2.24.26-3.63,1.12-4.17,2.57-.37.97-.56,1.91-.56,2.83s.19,1.88.58,2.78c.68,1.62,2.43,2.44,5.24,2.44.3,0,.61,0,.92-.02h8.95v-4.44h-8.57c-1.7.1-2.52-.2-2.48-.91.04-.71.41-1.1,1.09-1.17h11.26v-4.13h-5.66c-1.55-.36-2.47-1.44-2.76-3.24Z"></path><rect class="cls-5" x="90.11" y="49.41" width="4.49" height="4.57" transform="translate(-9.5 80.45) rotate(-45)"></rect><rect class="cls-5" x="100.1" y="21.94" width="4.57" height="4.49" transform="translate(12.89 79.48) rotate(-45)"></rect><path class="cls-5" d="M117,29.73c-3.9-.03-6.42,1.54-7.54,4.72-.91,3.32-.19,6.17,2.16,8.55h-7.18v-13.27h-4.36v13.27h-5.6v-13.27h-4.36v13.27h-4.81c.11-2.09-.28-4.29-1.18-6.61-.9-2.32-2.36-4.06-4.4-5.22-1.82-1.03-3.8-1.54-5.94-1.54-.27,0-.54,0-.81.02-.3,0-.6,0-.9.02v4.7c5.6-.26,8.48,2.33,8.65,7.76v.87h-11.86v4.13h36.2v.02l17.89-.02v-17.4h-5.96ZM118.43,42.99c-2.56-1.32-4.14-3.29-4.72-5.92.16-2.02,1.56-2.91,4.21-2.7h.51v8.61Z"></path><rect class="cls-5" x="115.4" y="21.94" width="4.57" height="4.49" transform="translate(17.37 90.3) rotate(-45)"></rect></g><g><path class="cls-1" d="M273.14,14.61c2.51-.76,7.73-3.03,11.78-4.5,2.46-.89,4.85-1.6,7.39-2.53.94-.35,1.9-.72,2.69-.93.14-.04.27-.07.42-.07.18,0,.22-.03.34-.3l.62-1.43-8.56,2.66-13.01,5.02v.19s-.45-.06-.56,0c-.05.03-.02.09-.05.14-.03.05-.17.08-.31.11-.49.11-3.84,1.68-4.21,1.98-.2.16-.99.88-1.14,1.45-.05.2-.06.22-.11.22h-.13v.37h-.18v.73s.46-.59.93-1.06c.25-.25,3.46-1.85,4.09-2.04Z"></path><path class="cls-1" d="M261.97,52.83c-.28.6-.55.91-.8.91-.34,0-.5-.34-.5-1.03,0-.45.25-1.49.76-3.12h-.08c-.78,1.36-1.16,2.56-1.16,3.61v.53c0,.11.01.25.04.43.13.43.36.65.68.65h.16c.44,0,.78-.64,1.01-1.91l-.06-.08h-.04Z"></path><path class="cls-1" d="M293.66,49.34h-.29c-.72,0-1.19.59-1.4,1.78,0,.12.04.18.12.18.28-.2.5-.3.64-.3h.52c.23.12.35.3.35.53v.06c0,.53-.8,1.67-2.39,3.43v.06l.29-.06c2.02-1.61,3.03-3.05,3.03-4.32v-.41c-.09-.63-.38-.95-.87-.95Z"></path><path class="cls-1" d="M248.05,17.77v.32c0,.21-.05.54-.14.99-.91,1.76-1.36,3.04-1.36,3.83v.14c0,.89.34,1.39,1.03,1.48h.29c.66,0,1.16-.72,1.49-2.17h-.17c-.41.67-.8,1.01-1.14,1.01-.52,0-.78-.38-.78-1.13l.12-.59c.96-1.89,1.44-3.29,1.44-4.18v-.28c0-1.74-.83-3.1-2.5-4.09h-.08c-.23.21-.47.52-.72.93v.06c1.68,1.24,2.52,2.47,2.52,3.69Z"></path><polygon class="cls-1" points="260.99 24.2 264.09 27.29 267.32 24.06 264.15 20.89 261.05 23.99 257.95 20.89 254.72 24.12 257.9 27.29 260.99 24.2"></polygon><rect class="cls-1" x="294.81" y="21.85" width="4.57" height="4.49" transform="translate(69.98 217.13) rotate(-45)"></rect><path class="cls-1" d="M295,42.9h-5.09v-7.7c-.13-1.38-.63-2.55-1.52-3.52-1.13-1.36-2.69-2.04-4.68-2.04h-10.15v6.68c-.98.46-1.65.93-1.99,1.39-.66.65-1.1,1.67-1.32,3.04v2.15h-4.08v-13.27h-4.36v13.27h-7.52v-13.27h-4.51c-4.89.13-7.55,2.33-7.99,6.59h-.06v14.51c.01,3.16-.05,4.75-2.4,4.76l-2.21,4.65h2.58c3.77,0,5.98-2.92,6.62-8.76,4.36.16,7.02-1.29,7.97-4.35h45.07v-17.4h-4.36v13.27ZM249.85,44.93c.07,1.16-.6,1.77-2.01,1.83h-1.52v-10.96c.1-1.07.78-1.65,2.05-1.72h1.47v10.85ZM277.78,42.9h-4v-2.04c.13-.84.69-1.34,1.69-1.5h.43c1,.03,1.62.51,1.88,1.46v2.09ZM285.15,36.9v6h-3.74v-2.35c-.09-.84-.37-1.61-.85-2.31-.47-.83-1.3-1.47-2.5-1.94v-2.59h4.72l.83.2.71.33.32.24c.1.09.18.17.26.26.09.12.15.22.19.33l.09.87.02.48-.04.48Z"></path></g></svg>